<svg width="140" height="143" viewBox="0 0 140 143" fill="none" xmlns="http://www.w3.org/2000/svg">
<path d="M17.2594 24.5026L19.5852 22.0763L32.5988 34.9754L36.426 30.9841L38.595 33.1343L32.4419 39.5509L17.2594 24.5026Z" fill="#B37C41"/>
<path d="M26.4425 15.6796L29.095 13.6283L41.9322 30.7916L39.2797 32.8428L26.4425 15.6796Z" fill="#B37C41"/>
<path d="M46.5589 20.8555L42.1377 6.04151L46.322 4.01558L55.4379 23.4819L52.594 24.859L46.0569 10.8985L50.5159 25.8642L47.672 27.2413L38.9822 14.5621L45.4284 28.3268L42.803 29.5982L33.6859 10.133L37.8713 8.10705L46.5589 20.8555Z" fill="#B37C41"/>
<path d="M51.919 2.59456L55.1567 1.79717L60.1479 22.7428L56.9102 23.5402L51.919 2.59456Z" fill="#B37C41"/>
<path d="M58.9958 0.878786L69.2606 0L69.5148 3.0697L66.0435 3.36776L67.5688 21.7849L64.2478 22.0686L62.7225 3.65153L59.25 3.94849L58.9958 0.878786Z" fill="#B37C41"/>
<path d="M76.239 9.58965L80.7803 10.1374L80.4233 13.195L75.8821 12.6484L75.1519 18.9164L80.8657 19.6049L80.5088 22.6626L71.4869 21.5748L73.9825 0.170478L83.0054 1.25824L82.6485 4.31584L76.9346 3.62733L76.239 9.58965Z" fill="#B37C41"/>
<path d="M88.4218 2.49777L93.3968 4.26745C96.5415 5.386 97.475 7.7089 96.3543 10.9645L92.8137 21.2536C91.693 24.5092 89.5393 25.7334 86.3946 24.6148L81.4196 22.8451L88.4218 2.49777ZM90.5658 6.52325L85.5638 21.0568L87.3368 21.687C88.3374 22.0433 89.1174 21.7332 89.6182 20.2803L93.2594 9.69964C93.7592 8.24673 93.3395 7.50982 92.3389 7.15347L90.5658 6.52325Z" fill="#B37C41"/>
<path d="M105.722 20.993L109.384 23.7811L107.568 26.2459L103.906 23.4588L100.184 28.5127L104.791 32.0201L102.975 34.4849L95.6999 28.9471L108.411 11.6904L115.685 17.2282L113.869 19.694L109.262 16.1866L105.722 20.993Z" fill="#B37C41"/>
<path d="M119.773 21.0777L123.211 25.1394C125.384 27.7065 125.051 30.1933 122.48 32.4436L114.352 39.5553C111.78 41.8045 109.313 41.7704 107.139 39.2022L103.702 35.1404L119.773 21.0777ZM119.65 25.6553L108.17 35.6992L109.395 37.1466C110.086 37.9638 110.915 38.0924 112.063 37.0872L120.42 29.7753C121.569 28.7712 121.567 27.9188 120.875 27.1027L119.65 25.6553Z" fill="#B37C41"/>
<path d="M129.004 33.0782L130.727 35.9763L112.586 47.1245L110.863 44.2263L129.004 33.0782Z" fill="#B37C41"/>
<path d="M132.755 39.4343L136.667 49.1229L133.864 50.2921L132.541 47.0156L115.724 54.0338L114.459 50.8992L131.276 43.881L129.953 40.6045L132.755 39.4343Z" fill="#B37C41"/>
<path d="M137.621 53.0296L138.396 56.3248L117.772 61.3412L116.996 58.0461L137.621 53.0296Z" fill="#B37C41"/>
<path d="M134.309 61.4292C137.692 61.1872 139.751 62.8601 139.981 66.1773C140.21 69.4945 138.403 71.4445 135.02 71.6876L124.025 72.4751C120.642 72.7181 118.582 71.0442 118.353 67.727C118.123 64.4098 119.93 62.4598 123.313 62.2178L134.309 61.4292ZM123.337 65.6098C121.826 65.7187 121.299 66.4347 121.373 67.5103C121.448 68.586 122.069 69.2195 123.579 69.1117L134.997 68.2934C136.507 68.1845 137.034 67.4685 136.959 66.3929C136.885 65.3183 136.264 64.6837 134.753 64.7915L123.337 65.6098Z" fill="#B37C41"/>
<path d="M133.625 79.347L118.461 76.8712L118.936 73.8609L139.872 77.2793L139.209 81.4752L126.134 82.8654L138.666 84.9112L138.196 87.8907L117.259 84.4723L117.801 81.0364L133.625 79.347Z" fill="#B37C41"/>
<path d="M124.984 115.323L122.776 117.861L109.169 105.616L105.536 109.789L103.268 107.749L109.108 101.038L124.984 115.323Z" fill="#B37C41"/>
<path d="M116.221 124.605L113.668 126.783L100.033 110.265L102.586 108.087L116.221 124.605Z" fill="#B37C41"/>
<path d="M95.8935 120.416L101.022 134.988L96.9417 137.219L86.8998 118.235L89.6734 116.718L96.8736 130.332L91.7006 115.609L94.4742 114.091L103.761 126.321L96.6605 112.896L99.221 111.496L109.262 130.48L105.18 132.711L95.8935 120.416Z" fill="#B37C41"/>
<path d="M91.4269 138.92L88.2314 139.878L82.2352 119.201L85.4307 118.243L91.4269 138.92Z" fill="#B37C41"/>
<path d="M84.4528 140.976L74.2443 142.363L73.8429 139.31L77.2959 138.842L74.889 120.526L78.1916 120.077L80.5985 138.393L84.0515 137.923L84.4528 140.976Z" fill="#B37C41"/>
<path d="M66.8234 133.137L62.2595 132.818L62.4672 129.745L67.0311 130.065L67.4573 123.765L61.7154 123.363L61.9231 120.29L70.9893 120.924L69.5332 142.435L60.4659 141.8L60.6736 138.727L66.4167 139.129L66.8234 133.137Z" fill="#B37C41"/>
<path d="M54.9619 140.82L49.9069 139.301C46.7114 138.342 45.6664 136.069 46.627 132.76L49.6657 122.304C50.6273 118.996 52.7195 117.666 55.915 118.625L60.97 120.144L54.9619 140.82ZM52.6243 136.906L56.9156 122.137L55.1145 121.597C54.0976 121.291 53.3339 121.64 52.9044 123.116L49.7803 133.867C49.352 135.345 49.8063 136.059 50.8231 136.365L52.6243 136.906Z" fill="#B37C41"/>
<path d="M36.8068 123.21L33.0163 120.608L34.7114 118.055L38.5019 120.658L41.9765 115.426L37.206 112.15L38.9011 109.597L46.4334 114.768L34.5665 132.636L27.0353 127.466L28.7304 124.913L33.501 128.188L36.8068 123.21Z" fill="#B37C41"/>
<path d="M22.7656 123.812L19.1374 119.926C16.8441 117.469 17.0582 114.969 19.5192 112.596L27.296 105.092C29.757 102.718 32.2223 102.632 34.5156 105.089L38.1428 108.976L22.7656 123.812ZM22.6693 119.235L33.6546 108.637L32.3619 107.253C31.6328 106.471 30.7987 106.383 29.7007 107.443L21.7033 115.158C20.6053 116.219 20.6475 117.069 21.3766 117.851L22.6693 119.235Z" fill="#B37C41"/>
<path d="M12.9422 112.259L11.0826 109.448L28.6806 97.4176L30.5402 100.229L12.9422 112.259Z" fill="#B37C41"/>
<path d="M8.91909 106.119L4.54663 96.6345L7.28997 95.3279L8.76873 98.5362L25.2288 90.692L26.6437 93.7606L10.1837 101.604L11.6624 104.812L8.91909 106.119Z" fill="#B37C41"/>
<path d="M3.40537 92.7872L2.47182 89.5339L22.8305 83.4956L23.7641 86.749L3.40537 92.7872Z" fill="#B37C41"/>
<path d="M6.30124 84.205C2.93265 84.6131 0.797256 83.0414 0.409986 79.7385C0.0227169 76.4368 1.73622 74.3998 5.10482 73.9907L16.0522 72.6653C19.4208 72.2573 21.5562 73.829 21.9435 77.1308C22.3296 80.4325 20.6161 82.4706 17.2486 82.8786L6.30124 84.205ZM17.0647 79.49C18.5684 79.3074 19.0606 78.5661 18.9351 77.4959C18.8096 76.4258 18.1595 75.823 16.6558 76.0045L5.28763 77.3804C3.78399 77.563 3.29179 78.3043 3.41727 79.3745C3.54276 80.4446 4.19289 81.0485 5.69654 80.8659L17.0647 79.49Z" fill="#B37C41"/>
<path d="M6.14222 66.2994L21.4069 68.0262L21.0748 71.0563L0 68.6729L0.462992 64.4483L13.4571 62.4169L0.841608 60.9893L1.16938 57.9889L22.2442 60.3733L21.8656 63.8324L6.14222 66.2994Z" fill="#B37C41"/>
<path d="M66.9593 94.2655C67.2324 93.0616 67.4907 91.8719 67.7732 90.6883C68.2248 88.7963 68.9133 87.0048 70.0065 85.4029C70.2109 85.1032 70.1514 84.9571 69.9397 84.7011C69.359 83.9988 68.7973 83.2757 68.2805 82.5227C67.7215 81.7084 67.6022 80.7772 67.8501 79.8209C68.2883 78.1303 69.8591 77.2406 71.4551 77.8561C71.969 78.0543 72.3703 78.563 72.8768 78.9731C73.2594 78.3155 73.8945 77.8155 74.8136 77.8139C75.66 77.8124 76.437 77.9979 77.0173 78.6452C77.8431 78.4237 77.7527 77.5291 78.2592 76.925C78.33 77.2845 78.3771 77.5235 78.4341 77.8125C79.0644 77.479 79.6694 77.1588 80.3574 76.7948C77.9888 74.9223 75.4398 73.519 72.9384 72.0737C72.3614 73.024 71.8176 73.9528 71.2415 74.86C70.589 75.8873 70.4919 75.877 69.7853 74.8911C69.1297 73.9763 68.4626 73.0702 67.7823 72.1351C66.7173 73.0802 65.8875 74.1401 65.1715 75.3008C64.7564 75.9738 64.5681 76.0126 64.0484 75.4377C62.8257 74.085 61.6265 72.7095 60.4044 71.3563C60.3038 71.245 60.0587 71.1367 59.9519 71.1871C57.3717 72.4056 54.8167 73.6745 52.5206 75.4234C51.0754 76.5243 50.2447 78.0679 49.7406 79.7822C48.6717 83.4174 47.6729 87.0746 46.6521 90.7248C46.235 92.2163 45.7699 93.6982 45.4501 95.2122C45.238 96.2162 45.1841 97.269 45.1806 98.3005C45.1789 98.7831 45.4259 99.2843 45.628 99.7457C45.9065 100.382 46.4306 100.642 47.1078 100.639C49.1237 100.632 50.9904 100.049 52.7907 99.1578C54.5291 98.2971 56.176 97.2869 57.7641 96.1591C58.8982 95.3538 60.1042 94.6568 61.2511 93.8698C61.6308 93.6093 61.9264 93.2186 62.2334 92.811C61.3405 92.5759 60.7857 92.055 60.4594 91.2602C60.1468 90.4986 59.9685 89.7287 60.401 88.7974C60.0351 88.9426 59.7894 89.0364 59.5465 89.1371C58.4496 89.5923 57.3469 90.0336 56.2597 90.5122C55.6591 90.7767 55.0757 91.0873 54.501 91.4083C53.6008 91.9112 52.7376 92.4903 51.8157 92.9442C50.9476 93.3715 50.1573 93.8734 49.5287 94.6288C49.3528 94.8403 49.1396 95.0496 48.8814 94.8149C48.595 94.5546 48.8135 94.3206 48.9961 94.0962C49.7262 93.1992 50.6792 92.6488 51.6885 92.1533C52.4956 91.757 53.2421 91.2314 54.0384 90.8094C54.8316 90.3891 55.647 90.0111 56.4644 89.6424C57.3575 89.2398 58.2778 88.8993 59.1599 88.4738C59.7287 88.1994 60.2875 88.0269 60.9188 88.1016C61.075 88.1201 61.2491 88.036 61.4056 87.9738C61.5232 87.9271 61.6259 87.7807 61.7353 87.7806C62.4817 87.7797 62.3401 87.2433 62.3221 86.7812C62.3002 86.2198 62.2567 85.6588 62.2493 85.0974C62.237 84.1609 62.3698 83.2432 62.7793 82.4001C63.3454 81.2348 63.9222 80.0733 64.5452 78.9399C64.8984 78.2973 65.3917 78.3375 65.7431 78.9784C66.0187 79.4811 66.0816 79.9883 65.8273 80.5389C65.559 81.1194 65.2962 81.7112 65.1189 82.3252C64.9778 82.8138 64.9688 83.3431 64.9012 83.8544C64.9577 83.8671 65.014 83.8798 65.0705 83.8926C65.1425 83.7225 65.1877 83.5317 65.2933 83.3878C65.4186 83.2168 65.5902 82.9769 65.7521 82.968C65.922 82.9588 66.181 83.1481 66.265 83.3209C66.4403 83.6818 66.6431 84.0941 66.627 84.4761C66.5749 85.712 66.4718 86.9497 66.308 88.1753C66.123 89.5607 65.3921 90.5835 64.1535 91.1966C64.0815 91.2323 64.0135 91.2771 63.9457 91.3209C63.9195 91.3379 63.899 91.3642 63.8494 91.4114C64.0968 91.8697 63.8202 92.1052 63.4513 92.2765C63.1753 92.4048 63.0465 92.5952 62.9215 92.8988C62.7214 93.3849 62.4553 93.9649 62.0488 94.2186C59.1033 96.0558 56.3825 98.2687 53.2483 99.7915C51.5357 100.624 49.774 101.235 47.876 101.389C45.8242 101.556 44.7103 100.64 44.4218 98.5214C44.2679 97.3908 44.3769 96.2708 44.6694 95.1808C45.2717 92.9361 45.9145 90.703 46.5336 88.4631C47.2801 85.7626 48.0584 83.0706 48.7515 80.3556C49.5888 77.0758 51.5065 74.7471 54.4034 73.2215C56.0154 72.3725 57.6254 71.5194 59.2368 70.6693C59.4722 70.5452 59.7497 70.4806 59.7777 70.1215C59.7848 70.0301 59.8998 69.9284 59.9881 69.8661C60.9129 69.2124 61.835 68.5539 62.7759 67.9256C63.017 67.7646 63.3221 67.7057 63.5978 67.5998C63.6436 67.6274 63.6892 67.6551 63.735 67.6827C63.858 67.0086 64.0195 66.339 64.0945 65.6593C64.1923 64.7733 64.2338 63.8799 64.2692 62.9883C64.2759 62.8222 64.1738 62.6198 64.063 62.4859C63.491 61.7948 62.9125 61.1085 62.3125 60.4433C61.5092 59.5527 61.1608 58.4791 61.0491 57.2985C61.0275 57.0701 60.9972 56.8426 60.9728 56.6313C60.919 56.6029 60.887 56.5705 60.8652 56.5767C59.9063 56.8484 59.3623 56.3666 58.9657 55.5248C58.4329 54.3938 57.8315 53.2942 57.888 51.9738C57.9263 51.0794 58.0816 50.2653 58.965 49.8067C59.0801 49.7469 59.1374 49.4802 59.1465 49.3052C59.2554 47.2227 59.4923 45.1631 59.9155 43.1173C60.659 39.5223 62.7871 37.1929 66.0927 36.1007C71.4296 34.3374 76.4569 35.156 81.0404 38.5036C83.1618 40.053 84.2293 42.3143 84.6207 44.9021C85.2201 48.8645 83.8137 52.1447 81.268 55.0289C80.8712 55.4785 80.6338 56.0926 80.3826 56.6589C80.1706 57.1372 80.0173 57.6488 79.887 58.1589C79.3677 60.1931 78.296 61.8773 76.7693 63.2328C75.3997 64.4487 73.9833 65.6133 72.5316 66.7227C72.0971 67.0547 71.4816 67.1512 70.9354 67.3041C70.6919 67.3724 70.3832 67.2241 70.3154 67.6441C70.2486 68.059 70.0502 68.4637 70.5043 68.8089C71.2779 69.3969 72.0339 70.0104 72.7802 70.635C72.9526 70.7794 73.046 71.0202 73.1937 71.2012C73.2997 71.3313 73.4208 71.4606 73.5602 71.5476C75.6844 72.873 77.814 74.1893 79.9386 75.5141C80.157 75.6503 80.3852 75.7962 80.5509 75.9901C80.9333 76.4378 81.2901 76.3757 81.6974 76.0353C82.0078 75.776 82.3739 75.5839 82.6662 75.307C82.7934 75.1864 82.8499 74.9271 82.847 74.7323C82.8403 74.2725 82.64 74.1197 82.1457 74.196C81.1627 74.3477 80.2717 73.7148 79.9401 72.6045C79.5728 71.3749 79.2967 70.1159 78.9987 68.8652C78.9119 68.5009 79.1462 68.2658 79.5405 68.342C79.9632 68.4236 80.4089 68.5073 80.781 68.7126C81.5264 69.1239 82.2729 69.5596 82.938 70.0925C84.004 70.9466 84.1346 72.2079 83.4609 73.4041C83.3182 73.6574 83.4401 74.0692 83.4401 74.4079C83.4986 74.4326 83.5571 74.4574 83.6156 74.4821C84.3858 73.4915 85.1561 72.5007 86.0043 71.4096C85.2859 71.3868 85.0092 70.9932 84.7327 70.5175C84.5576 70.2161 84.2129 69.9816 83.8959 69.8149C83.4265 69.5681 83.2477 69.219 83.2885 68.6982C83.3286 68.188 83.295 67.6662 83.3861 67.1674C83.4573 66.7774 83.6812 66.4191 83.8154 66.0385C83.8956 65.8111 84.0127 65.5533 83.9743 65.3352C83.8985 64.9044 84.0047 64.6133 84.3324 64.3434C84.8201 63.9416 85.3293 63.5469 85.7344 63.0644C86.2346 62.4686 87.0759 62.4144 87.6726 63.0092C87.7898 62.8821 87.9063 62.7542 88.0245 62.6278C88.2938 62.3397 88.5965 62.1607 89.0099 62.2444C89.1419 62.2711 89.2902 62.1983 89.4292 62.2057C89.7756 62.2244 90.1299 62.2232 90.4646 62.3032C90.9597 62.4216 91.4451 62.5903 91.9252 62.7651C92.0956 62.8271 92.2817 62.9364 92.3855 63.0812C92.66 63.4644 92.8888 63.8821 93.1445 64.2801C93.4275 64.7206 93.4413 65.204 93.2576 65.6578C93.0812 66.0934 93.1669 66.4618 93.3528 66.8386C93.5635 67.2656 93.7821 67.6889 94.0076 68.1078C94.2063 68.4768 94.1248 68.7899 93.7548 68.9091C93.0075 69.1498 92.6559 69.5881 92.6601 70.4357C92.6634 71.0954 92.2227 71.5043 91.6087 71.7701C91.0565 72.0092 90.5455 72.3666 90.049 72.7205C89.5233 73.0953 89.4348 73.0741 88.8985 72.7523C88.2673 72.3733 87.5863 72.0797 86.9142 71.7792C86.8176 71.736 86.6007 71.8195 86.5244 71.9159C86.2423 72.2723 85.9959 72.6587 85.7129 73.0672C85.9657 73.2346 86.1973 73.388 86.4291 73.5415C86.4245 73.5974 86.4198 73.6533 86.4152 73.7093C86.1396 73.7298 85.8593 73.7919 85.5895 73.7601C85.2773 73.7232 85.0833 73.8261 84.8987 74.0748C84.6559 74.4021 84.371 74.6958 84.1097 75.0089C83.8597 75.3085 83.6168 75.6146 83.362 75.9287C83.5158 75.8902 83.7862 75.9073 83.9173 75.7761C84.796 74.8976 85.7996 75.266 86.5257 75.9877C87.1841 76.6421 87.5934 77.4697 87.7937 78.3934C87.8944 78.8575 87.6951 79.053 87.2399 78.9557C86.5025 78.798 85.7702 78.6135 85.0301 78.4712C84.3253 78.3356 83.8989 77.9125 83.6613 77.2331C83.585 77.015 83.4662 76.6769 83.319 76.6475C82.9404 76.5717 82.5321 76.6116 82.142 76.6603C81.9864 76.6797 81.8477 76.8441 81.5527 77.0424C81.8432 77.2834 82.122 77.4584 82.332 77.6977C84.4229 80.0807 86.0275 82.7921 87.4531 85.6389C88.2895 87.3091 89.2669 88.9052 90.2028 90.5211C91.3696 92.5359 92.552 94.5435 93.3523 96.7509C93.7833 97.9398 93.6751 99.1676 93.3549 100.364C93.1233 101.229 92.5155 101.761 91.6804 101.981C90.7095 102.237 89.7524 102.173 88.9066 101.581C86.5936 99.9611 84.4564 98.1175 82.4951 96.063C82.1957 95.7495 81.9927 95.3395 81.7346 94.9822C81.554 94.7322 81.386 94.4585 81.1587 94.261C80.5024 93.6905 80.1672 92.97 80.1419 92.1003C80.1286 91.6438 80.053 91.2273 79.7811 90.852C79.6908 90.7273 79.6677 90.5509 79.5878 90.3245C79.3233 90.4372 79.0346 90.5228 78.7823 90.6735C76.2036 92.2137 73.4331 92.2235 70.6063 91.7728C69.8495 91.6522 69.6816 91.1765 70.1525 90.5551C70.4521 90.1597 70.8277 89.9107 71.3305 89.8781C72.0982 89.8284 72.8683 89.7904 73.6305 89.6911C74.0978 89.6302 74.5524 89.4641 75.0127 89.3454C75.0085 89.3024 75.0044 89.2596 75.0003 89.2166C74.8115 89.2166 74.6221 89.2268 74.4342 89.2145C74.0058 89.1866 73.7381 88.891 73.8889 88.4881C74.024 88.1267 74.2578 87.6494 74.5589 87.5359C75.893 87.033 77.2555 86.5968 78.6305 86.2262C79.71 85.9353 80.6207 86.3968 81.4619 87.1029C81.968 87.5277 82.5648 87.8379 83.1239 88.1945C83.1739 88.2264 83.2495 88.2411 83.3076 88.2306C84.0252 88.1006 84.547 88.4701 85.0097 88.9558C85.8736 89.8627 86.7254 90.7819 87.58 91.6982C88.2352 92.4008 88.9152 93.0818 89.5309 93.8198C89.9766 94.354 90.3582 94.951 90.7148 95.5537C90.7991 95.6965 90.6684 95.9745 90.6365 96.1903C90.4467 96.0901 90.2006 96.0371 90.0772 95.8811C89.6342 95.3203 89.2804 94.6792 88.8063 94.151C87.4357 92.6234 86.0261 91.133 84.6239 89.6357C84.4092 89.4064 84.1528 89.2184 83.8648 88.9667C83.9698 90.9139 82.8744 92.0939 80.9411 92.2236C80.9056 92.7817 81.1733 93.1837 81.5327 93.5686C81.874 93.9342 82.1486 94.365 82.4782 94.7432C83.1394 95.5018 83.7585 96.3152 84.5022 96.9779C85.9555 98.2729 87.4769 99.487 88.9814 100.72C89.5838 101.214 90.2845 101.404 91.057 101.325C91.9992 101.228 92.5289 100.772 92.7249 99.8264C92.9983 98.5073 92.864 97.241 92.2903 96.0139C91.0698 93.4034 89.5526 90.9722 88.1092 88.4936C87.0878 86.7394 86.2594 84.8663 85.2483 83.1051C84.1296 81.1565 82.8698 79.3009 81.3032 77.6881C81.0435 77.4208 80.8444 77.3801 80.5227 77.5688C79.632 78.0913 78.724 78.5827 77.8181 79.0773C77.5462 79.2258 77.4843 79.3856 77.5993 79.7066C78.0009 80.8274 77.8351 81.8812 77.1545 82.8509C76.0395 84.4395 74.61 85.6782 73.0568 86.7809C72.7913 86.9693 72.5502 86.9298 72.3072 86.7388C71.8244 86.3593 71.3385 85.984 70.7933 85.5598C70.4567 86.1148 70.1312 86.6514 69.8139 87.1744C69.8629 87.2375 69.8766 87.2726 69.9003 87.2832C70.0918 87.3684 70.2851 87.4489 70.4779 87.531C70.2897 87.6564 70.1158 87.8436 69.9103 87.8943C69.4808 88.0003 69.2947 88.2709 69.1531 88.6788C67.9801 92.0609 67.4226 95.5481 67.4183 99.1348C67.4172 99.9944 67.4108 100.854 67.4081 101.714C67.4072 101.994 67.3783 102.29 67.0326 102.287C66.6967 102.283 66.6434 101.994 66.6518 101.711C66.7108 99.7292 66.7545 97.7464 66.8489 95.766C66.8699 95.3244 66.7897 95.0089 66.4745 94.7194C66.3512 94.6061 66.3039 94.4049 66.2219 94.2439C66.4083 94.2452 66.5947 94.2453 66.781 94.2489C66.8432 94.25 66.9052 94.2602 66.9593 94.2655ZM79.1655 57.9255C78.8189 57.9639 78.5087 57.4633 78.2508 57.9468C78.0109 58.3964 77.6975 58.6197 77.2062 58.5494C76.7455 58.4834 76.4024 58.1073 76.2516 57.614C76.2015 57.4498 76.012 57.3345 75.9005 57.1854C75.8105 57.065 75.6535 56.8945 75.6847 56.8053C75.7313 56.6727 75.9049 56.5579 76.0487 56.501C76.154 56.4593 76.3001 56.5144 76.4251 56.5408C77.4098 56.7487 78.3938 56.9602 79.4107 57.1775C79.5209 56.8776 79.6286 56.5702 79.7465 56.2671C80.0106 55.5878 79.8686 55.3379 79.1683 55.1824C78.293 54.9879 77.4231 54.7676 76.5502 54.5618C76.4779 54.5447 76.3843 54.5228 76.3273 54.5544C75.495 55.0141 74.719 55.5404 74.4246 56.5424C74.1665 57.4207 74.0571 58.3152 74.1782 59.2349C74.232 59.6431 74.2603 60.0578 74.2623 60.4698C74.2656 61.181 73.4885 62.0777 72.8029 62.1481C72.6766 62.1611 72.4682 62.0618 72.4222 61.9565C72.376 61.8511 72.4479 61.6387 72.5365 61.5358C72.6478 61.4063 72.8264 61.3362 72.9799 61.248C73.4373 60.9853 73.6323 60.6048 73.544 60.0569C73.4812 59.6666 73.4546 59.2685 73.4359 58.8728C73.3378 56.8043 73.8299 55.0368 75.7693 53.9964C75.9088 53.9215 76.0312 53.7181 76.0687 53.5523C76.229 52.8431 76.7522 52.501 77.4353 52.7163C78.0471 52.9091 78.6494 53.1344 79.2615 53.3262C79.8336 53.5056 80.4578 53.5695 80.7949 54.2076C81.5815 52.888 81.5102 52.1173 80.6165 51.2877C80.2125 50.9128 79.8317 50.5033 79.3926 50.1782C78.1461 49.2557 77.1536 48.1135 76.4134 46.7302C76.1139 46.1707 75.7915 45.6242 75.479 45.0708C75.4003 45.1116 75.3554 45.1298 75.3157 45.1563C72.7142 46.8913 70.0713 48.5433 67.0698 49.4621C65.9925 49.792 65.0193 50.3579 64.3847 51.2871C63.6459 52.3691 62.8223 52.3891 61.7573 51.9706C61.1098 51.7162 60.479 51.5725 60.1263 50.8302C59.8452 50.2386 59.115 50.3302 58.8078 50.9349C58.7494 51.0498 58.7148 51.1818 58.6906 51.3103C58.3675 53.0177 59.1475 54.3957 59.9749 55.7444C60.1804 56.0794 60.8233 55.8804 60.9648 55.5118C61.0214 55.3646 61.2053 55.2694 61.3313 55.1505C61.4391 55.2906 61.6201 55.4198 61.6412 55.5726C61.7086 56.0619 61.704 56.5611 61.7505 57.0542C61.8331 57.9317 61.9663 58.8008 62.5247 59.516C64.2669 61.7475 66.2015 63.7938 68.2646 65.7063C69.4026 66.7612 71.1906 66.8183 72.4388 65.9278C74.09 64.7497 75.6225 63.4261 77.0174 61.9338C78.0617 60.8166 78.7878 59.522 79.1655 57.9255ZM76.8377 79.8108C76.63 79.9674 76.4602 80.0821 76.3047 80.2148C75.4293 80.9615 74.5583 81.714 73.6832 82.4611C73.4655 82.6469 73.2215 82.9343 72.9528 82.5969C72.7213 82.3061 72.9646 82.0839 73.1812 81.8964C73.9169 81.2599 74.6508 80.6211 75.3887 79.9873C75.717 79.7053 76.0532 79.4331 76.3882 79.1547C75.6502 78.3538 74.2653 78.3926 73.6453 79.211C73.4396 79.4826 73.2803 79.7911 73.0948 80.0793C72.8388 80.4769 72.5515 80.4585 72.3465 80.036C72.2179 79.7708 72.1283 79.4699 71.9461 79.2517C71.7161 78.9762 71.4444 78.6527 71.1299 78.5522C69.8761 78.1519 68.8108 78.855 68.5383 80.1784C68.4013 80.8437 68.5183 81.4536 68.8567 82.0298C69.785 83.6103 71.0368 84.8705 72.4971 85.9191C72.5941 85.9888 72.8128 86.0009 72.9059 85.9354C74.3435 84.9242 75.6405 83.7538 76.6361 82.2666C77.1352 81.5216 77.1826 80.7171 76.8377 79.8108ZM65.1479 63.5297C65.1005 63.5676 65.0533 63.6055 65.006 63.6435C64.9976 63.7412 64.9885 63.8388 64.981 63.9365C64.8572 65.5458 64.8299 67.1725 64.0707 68.6571C64.0122 68.7716 64.1297 69.0695 64.2521 69.1809C65.0968 69.9496 66.0065 70.6085 67.1196 70.9222C67.9712 71.1621 69.0798 70.7133 69.4894 69.9078C69.5539 69.7809 69.608 69.6275 69.6041 69.4882C69.5826 68.7259 69.5416 67.9643 69.5044 67.1356C68.6185 66.9871 67.8407 66.4266 67.161 65.7009C66.4864 64.9807 65.8186 64.2537 65.1479 63.5297ZM62.9581 68.6624C62.1638 69.2314 61.396 69.7815 60.5236 70.4066C61.8813 71.9415 63.1791 73.4089 64.4541 74.8503C65.3371 73.7542 66.1557 72.7383 66.98 71.7152C65.3758 71.114 63.9248 70.2935 62.9581 68.6624ZM70.7196 90.8915C70.888 91.0044 70.9245 91.049 70.965 91.0532C73.1205 91.2812 75.2782 91.5326 77.3355 90.5157C77.7828 90.2946 78.2189 90.0304 78.6884 89.8807C79.1949 89.7193 79.7351 89.6707 80.2599 89.5689C80.3763 89.5463 80.5254 89.5438 80.5985 89.4689C80.9556 89.1021 81.2921 88.714 81.6279 88.3422C80.6853 87.2868 79.686 86.6026 78.3075 87.0382C77.1767 87.3955 76.0562 87.7872 74.934 88.1724C74.8669 88.1954 74.8248 88.2956 74.7135 88.4285C74.9592 88.3972 75.1162 88.3848 75.2705 88.3565C75.9325 88.2353 76.591 88.0888 77.2569 88C77.4189 87.9783 77.6378 88.106 77.7614 88.2353C77.8087 88.2848 77.7075 88.6066 77.5977 88.6758C76.2606 89.5182 74.947 90.4305 73.3042 90.5182C72.7127 90.5497 72.1195 90.5636 71.5308 90.6245C71.2877 90.6496 71.0546 90.7773 70.7196 90.8915ZM63.2797 90.8083C63.5271 90.6822 63.6259 90.6272 63.7283 90.5805C65.3831 89.8256 65.8636 88.4378 65.1925 86.6649C64.9366 85.9887 64.7097 85.3005 64.479 84.6145C64.1558 83.6537 64.1917 82.6985 64.5528 81.756C64.7468 81.2496 64.9689 80.7537 65.143 80.2404C65.2172 80.0215 65.201 79.7702 65.2259 79.5337C65.1698 79.5192 65.1138 79.5047 65.0577 79.4901C64.8238 79.9138 64.5962 80.3412 64.3549 80.7604C63.2766 82.6341 62.7089 84.6208 63.0622 86.8198C63.1586 87.4199 62.9891 87.9615 62.68 88.4686C62.608 88.5868 62.5037 88.7584 62.5387 88.8597C62.7611 89.5031 63.0184 90.1338 63.2797 90.8083ZM70.5816 74.6652C71.182 73.5468 71.7344 72.5306 72.2669 71.5034C72.3125 71.4154 72.2696 71.2 72.1942 71.1363C71.6195 70.6503 71.0266 70.1873 70.3903 69.6781C70.067 70.7636 69.3367 71.3301 68.362 71.6581C69.0927 72.6482 69.7843 73.5851 70.5816 74.6652ZM91.0738 65.6029C91.2396 64.981 91.0555 64.5688 90.7123 64.3476C90.1769 64.0024 89.651 63.6338 89.1612 63.2241C88.8783 62.9875 88.6842 62.9256 88.457 63.2528C88.127 63.7277 87.676 64.004 87.1375 64.1847C86.9423 64.2502 86.761 64.4807 86.655 64.6817C86.4422 65.0855 86.2687 65.5144 86.1152 65.9466C86.0657 66.0858 86.0778 66.299 86.1497 66.4252C86.723 67.4332 87.3423 68.4141 87.8934 69.4343C88.1216 69.8568 88.33 69.9405 88.7535 69.6297C88.4119 68.9902 88.0607 68.3675 87.7422 67.7275C87.3174 66.8742 87.013 65.9861 87.3978 65.0306C87.4604 64.8751 87.7164 64.8024 87.883 64.6913C87.9446 64.8729 88.0311 65.0505 88.0591 65.2375C88.0781 65.3636 88.0145 65.5029 87.988 65.6364C88.0445 65.6603 88.1011 65.6842 88.1575 65.7083C88.2323 65.5643 88.3308 65.428 88.3778 65.275C88.5794 64.6177 88.8717 64.4139 89.5242 64.5314C90.1494 64.644 90.7309 64.8459 91.0738 65.6029ZM89.4418 70.0645C88.4153 70.9073 87.8301 70.7986 87.2074 69.6473C87.0563 69.3679 86.8842 69.3227 86.5954 69.4533C86.6485 69.7641 86.7249 70.0682 86.7472 70.3765C86.7776 70.7968 86.9835 71.0015 87.3592 71.1548C87.9961 71.4146 88.5993 71.7607 89.2296 72.0397C89.3656 72.0999 89.5819 72.0823 89.7167 72.011C90.311 71.6968 90.8825 71.3372 91.4753 71.0198C91.8347 70.8274 91.9738 70.5441 91.9594 70.1778C91.5502 70.3719 91.1388 70.7324 90.7512 70.7069C90.3125 70.6783 89.8952 70.3032 89.4418 70.0645ZM93.2098 68.2414C92.967 67.6877 92.6963 67.1267 92.4727 66.5466C92.1877 65.8069 92.0874 65.7614 91.3859 66.2188C91.6556 66.7264 91.4068 67.013 90.9545 67.2036C90.8662 67.2408 90.7529 67.2747 90.7072 67.3474C90.6255 67.4776 90.5273 67.6471 90.5501 67.7792C90.5654 67.8673 90.8317 68.0095 90.8934 67.9708C91.1193 67.8297 91.3371 67.6474 91.4996 67.4336C91.6531 67.2314 91.7657 66.9683 92.0545 67.1142C92.3642 67.2706 92.2689 67.5423 92.1481 67.7969C91.7787 68.5756 91.4286 68.7777 90.582 68.7308C90.1952 68.7093 89.8064 68.7271 89.4028 68.7271C89.4766 69.1886 90.5948 70.0249 90.8987 69.9331C90.957 69.9155 91.0056 69.8622 91.0577 69.824C91.7709 69.2998 92.4839 68.7754 93.2098 68.2414ZM82.4245 73.3633C82.2653 73.0293 82.1608 72.7138 81.9814 72.4531C81.5561 71.8352 81.0825 71.2526 80.6583 70.6341C80.5614 70.4929 80.5851 70.2639 80.5532 70.0753C80.7328 70.113 80.918 70.1341 81.0893 70.196C81.1697 70.2249 81.2272 70.3292 81.2883 70.4051C81.872 71.1295 82.4541 71.8551 83.0459 72.5919C83.2368 72.1659 83.1849 71.7077 82.9357 71.3125C82.2385 70.2069 81.1592 69.6549 79.9883 69.2567C79.9717 69.251 79.9403 69.2915 79.9141 69.3119C80.1412 70.2891 80.3394 71.2749 80.6039 72.2414C80.8632 73.1891 81.4604 73.5567 82.4245 73.3633ZM80.5031 90.6886C80.8326 90.9846 80.9711 91.5714 81.5783 91.4135C82.396 91.2007 82.8932 90.6046 83.113 89.8051C83.2827 89.1882 82.7186 88.952 82.4151 88.6015C81.7767 89.2983 81.1679 89.963 80.5031 90.6886ZM61.6286 88.7907C60.6297 89.3379 60.7239 90.0667 61.2548 91.1762C61.6359 91.9726 62.1984 92.093 62.9191 91.6628C62.4912 90.7102 62.0648 89.7615 61.6286 88.7907ZM86.9436 63.4489C86.9124 63.3932 86.8812 63.3375 86.8501 63.2818C86.7021 63.3428 86.5267 63.3702 86.4108 63.4706C85.8976 63.9158 85.391 64.3705 84.9074 64.849C84.7978 64.9574 84.7222 65.1859 84.7462 65.34C84.8626 66.0872 85.0426 66.8241 85.1536 67.5719C85.2743 68.3861 85.7863 68.7431 86.6344 68.4993C86.4125 68.1443 86.2079 67.7948 85.9825 67.4604C85.0383 66.0594 84.996 66.5904 85.7518 65.009C85.7799 64.9502 85.8021 64.8877 85.8211 64.8249C86.0056 64.2147 86.2567 63.6581 86.9436 63.4489ZM85.951 70.6879C85.9849 70.6548 86.0188 70.6216 86.0526 70.5885C85.9942 70.2534 85.9628 69.9097 85.8655 69.5871C85.8194 69.4342 85.6686 69.2453 85.5287 69.2039C84.8074 68.9907 84.497 68.4858 84.4435 67.752C84.4205 67.4363 84.3652 67.1232 84.3245 66.8089C84.2568 66.8084 84.189 66.8078 84.1213 66.8073C84.0824 67.4121 84.0146 68.0173 84.0212 68.6215C84.0233 68.8165 84.1762 69.0818 84.3385 69.1891C84.8292 69.5137 85.2987 69.8288 85.5418 70.4165C85.5945 70.5438 85.8104 70.5993 85.951 70.6879ZM84.39 76.8838C84.3551 76.9305 84.3201 76.9773 84.2851 77.024C84.4644 77.2319 84.6079 77.5518 84.8296 77.627C85.5342 77.8663 86.268 78.0145 87.0252 78.2067C86.638 76.576 85.2977 75.5549 84.638 76.1815C85.0776 76.3999 85.518 76.5895 85.9252 76.837C86.0634 76.9211 86.1181 77.1511 86.211 77.3144C86.0277 77.3415 85.8257 77.4329 85.6648 77.3832C85.2305 77.2488 84.8138 77.0544 84.39 76.8838ZM90.4673 66.6021C90.4759 66.5883 90.6211 66.4622 90.6082 66.3569C90.5447 65.8378 89.8498 65.2325 89.3539 65.2534C89.2602 65.2574 89.0964 65.3838 89.0934 65.4591C89.0807 65.7818 89.0164 66.1644 89.1551 66.4182C89.4231 66.9088 89.537 67.3846 89.382 67.9355C89.6678 67.9929 89.8418 67.9776 89.7556 67.6375C89.6948 67.3978 89.6321 67.1579 89.5864 66.915C89.5271 66.5991 89.2421 66.1867 89.7153 66.0358C89.8704 65.9862 90.15 66.3516 90.4673 66.6021ZM92.6519 65.2092C92.6298 64.4903 92.1347 63.9543 91.7312 63.5702C91.3228 63.1816 90.5921 63.1532 90.0026 62.967C89.983 63.0107 89.9635 63.0546 89.9441 63.0983C90.3188 63.2989 90.6817 63.53 91.0718 63.6917C91.469 63.8563 91.7289 64.1124 91.763 64.5493C91.8054 65.0919 92.0978 65.2656 92.6519 65.2092ZM65.7544 86.2271C66.0422 84.9076 66.0536 84.4296 65.7861 83.9919C65.5994 84.7471 65.1588 85.449 65.7544 86.2271ZM88.536 67.7214C88.802 67.2137 88.5283 66.568 87.9732 66.3826C88.1897 66.8976 88.3629 67.3095 88.536 67.7214Z" fill="#B37C41"/>
<path d="M87.9732 66.3826C88.1897 66.8976 88.3629 67.3095 88.536 67.7214L87.9732 66.3826Z" fill="#B37C41"/>
<path d="M71.0099 53.7627C70.1933 53.608 69.3608 53.5123 68.5643 53.2832C67.623 53.0125 66.7091 53.014 65.7738 53.2502C65.4484 53.3324 65.1125 53.3773 64.7789 53.4162C64.4475 53.4549 64.1605 53.3603 64.0631 52.9887C63.9698 52.6324 64.128 52.3675 64.4351 52.2183C65.2312 51.8312 66.0229 51.4292 66.8415 51.0998C67.132 50.9829 67.5 51.0157 67.8246 51.0534C69.0775 51.1992 70.3258 51.3878 71.5787 51.5334C72.209 51.6067 72.6231 51.9897 72.6333 52.5889C72.6434 53.1789 72.2374 53.607 71.5991 53.6647C71.4085 53.682 71.2152 53.6674 71.0232 53.6674C71.0188 53.6992 71.0143 53.731 71.0099 53.7627Z" fill="#B37C41"/>
<path d="M66.8736 54.8888C67.9954 55.0518 69.1177 55.2103 70.2384 55.3811C70.4942 55.4201 70.7985 55.4924 70.7425 55.8447C70.6799 56.2387 70.3657 56.1634 70.0913 56.1063C69.9348 56.0738 69.7744 56.0567 69.6209 56.0131C69.1985 55.8933 68.9124 55.8983 68.6164 56.3848C68.0937 57.2441 66.7891 57.043 66.392 56.0831C66.2712 55.7911 66.135 55.697 65.8405 55.6764C65.6867 55.6657 65.545 55.4682 65.3978 55.3551C65.5499 55.227 65.6884 55.0184 65.8572 54.9879C66.1829 54.9291 66.5259 54.9708 66.8616 54.9708C66.8655 54.9434 66.8695 54.9161 66.8736 54.8888Z" fill="#B37C41"/>
<path d="M59.77 52.2289C59.6854 52.3555 59.641 52.4989 59.5583 52.5283C59.4262 52.5755 59.2405 52.5981 59.1312 52.5338C59.0477 52.4847 58.9744 52.2257 59.0226 52.163C59.2307 51.892 59.45 51.5528 59.736 51.4521C59.9059 51.3923 60.3027 51.6747 60.4268 51.9021C60.6022 52.224 60.6924 52.6384 60.6865 53.0111C60.6791 53.4662 60.3314 53.8968 60.5952 54.3923C60.629 54.4557 60.4967 54.7013 60.4073 54.7247C60.2838 54.7572 60.0758 54.705 59.9953 54.6083C59.7015 54.2548 59.6686 53.8451 59.8341 53.4057C59.9653 53.057 60.1346 52.6957 59.77 52.2289Z" fill="#B37C41"/>
<path d="M71.2913 64.6524C70.9871 64.6663 70.6766 64.7227 70.3811 64.6767C70.2233 64.6521 70.0915 64.4505 69.9479 64.3288C70.0765 64.207 70.1999 63.9879 70.3348 63.9799C70.9725 63.9423 71.6152 63.9356 72.2516 63.982C72.4004 63.9928 72.532 64.2539 72.6715 64.3998C72.4992 64.5003 72.3341 64.6648 72.1529 64.6864C71.8721 64.7198 71.5803 64.6558 71.2931 64.6331C71.2924 64.6395 71.2918 64.6459 71.2913 64.6524Z" fill="#B37C41"/>
<path d="M79.2544 52.4139C78.9523 52.6225 78.7726 52.843 78.6069 52.8323C78.4584 52.8227 78.1941 52.5319 78.2167 52.4129C78.2504 52.2354 78.4742 52.0122 78.65 51.9754C78.7791 51.9484 78.9609 52.1889 79.2544 52.4139Z" fill="#B37C41"/>
</svg>
