<svg width="50" height="65" viewBox="0 0 50 65" fill="none" xmlns="http://www.w3.org/2000/svg">
<path d="M22.7159 57.2288C22.9903 56.0625 23.2499 54.9098 23.5337 53.7631C23.9874 51.9301 24.6792 50.1945 25.7777 48.6425C25.9831 48.3522 25.9233 48.2106 25.7106 47.9626C25.1271 47.2822 24.5627 46.5816 24.0434 45.852C23.4817 45.0631 23.3619 44.161 23.6109 43.2344C24.0512 41.5965 25.6296 40.7346 27.2333 41.3309C27.7496 41.5229 28.1529 42.0157 28.6618 42.4131C29.0463 41.776 29.6844 41.2916 30.6079 41.2901C31.4584 41.2886 32.2392 41.4683 32.8222 42.0954C33.652 41.8808 33.5611 41.0141 34.07 40.4289C34.1412 40.7772 34.1886 41.0087 34.2458 41.2887C34.8791 40.9656 35.4871 40.6554 36.1784 40.3027C33.7984 38.4885 31.2371 37.1291 28.7237 35.7287C28.144 36.6494 27.5976 37.5493 27.0187 38.4282C26.363 39.4235 26.2654 39.4135 25.5554 38.4584C24.8967 37.5721 24.2264 36.6942 23.5428 35.7882C22.4728 36.7039 21.6389 37.7308 20.9195 38.8553C20.5024 39.5073 20.3132 39.5449 19.791 38.9879C18.5624 37.6773 17.3574 36.3447 16.1294 35.0337C16.0284 34.9259 15.7821 34.8209 15.6748 34.8698C13.0822 36.0503 10.515 37.2796 8.20784 38.9741C6.75564 40.0406 5.92092 41.5361 5.41442 43.197C4.34043 46.7189 3.33681 50.262 2.31106 53.7985C1.89196 55.2435 1.42462 56.6792 1.10326 58.146C0.890186 59.1187 0.836047 60.1387 0.83247 61.138C0.830826 61.6056 1.079 62.0912 1.28202 62.5382C1.5619 63.1544 2.08851 63.4062 2.76893 63.4039C4.79452 63.3972 6.67027 62.8323 8.47921 61.9687C10.2259 61.1348 11.8807 60.156 13.4765 59.0634C14.616 58.2832 15.8278 57.6079 16.9803 56.8455C17.3618 56.5931 17.6588 56.2145 17.9673 55.8196C17.0701 55.5919 16.5126 55.0872 16.1847 54.3172C15.8706 53.5794 15.6915 52.8334 16.126 51.9312C15.7584 52.0719 15.5116 52.1627 15.2674 52.2603C14.1653 52.7013 13.0573 53.1288 11.9648 53.5925C11.3614 53.8487 10.7752 54.1497 10.1977 54.4607C9.29314 54.9479 8.42584 55.5089 7.49948 55.9487C6.62725 56.3627 5.83313 56.8489 5.20154 57.5808C5.02471 57.7857 4.81057 57.9885 4.55109 57.7611C4.26328 57.509 4.48283 57.2822 4.66633 57.0648C5.39992 56.1958 6.35752 55.6625 7.37167 55.1825C8.1827 54.7985 8.93273 54.2893 9.73293 53.8805C10.5299 53.4733 11.3492 53.107 12.1706 52.7499C13.0679 52.3598 13.9927 52.0299 14.879 51.6177C15.4506 51.3519 16.012 51.1847 16.6464 51.2571C16.8033 51.275 16.9783 51.1935 17.1355 51.1332C17.2537 51.088 17.3569 50.9462 17.4668 50.9461C18.2167 50.9452 18.0745 50.4255 18.0564 49.9779C18.0344 49.4339 17.9907 48.8904 17.9832 48.3465C17.9709 47.4392 18.1043 46.5501 18.5158 45.7332C19.0846 44.6043 19.6642 43.479 20.2902 42.3809C20.6451 41.7584 21.1407 41.7973 21.4938 42.4182C21.7708 42.9053 21.834 43.3967 21.5784 43.9301C21.3089 44.4925 21.0448 45.0659 20.8666 45.6607C20.7248 46.1341 20.7158 46.6469 20.6479 47.1422C20.7046 47.1545 20.7613 47.1668 20.818 47.1792C20.8903 47.0145 20.9358 46.8296 21.0418 46.6902C21.1678 46.5246 21.3402 46.2921 21.5029 46.2835C21.6736 46.2746 21.9339 46.458 22.0183 46.6254C22.1944 46.975 22.3981 47.3745 22.382 47.7446C22.3297 48.942 22.226 50.1411 22.0615 51.3284C21.8756 52.6707 21.1411 53.6616 19.8966 54.2556C19.8243 54.2901 19.7559 54.3336 19.6878 54.3761C19.6615 54.3925 19.6409 54.418 19.591 54.4637C19.8396 54.9077 19.5617 55.1359 19.191 55.3018C18.9137 55.4261 18.7843 55.6106 18.6587 55.9047C18.4576 56.3757 18.1902 56.9376 17.7818 57.1834C14.8222 58.9633 12.0883 61.1073 8.93901 62.5826C7.21814 63.3888 5.44797 63.9812 3.5409 64.1305C1.47924 64.292 0.359908 63.4045 0.0700675 61.3521C-0.0846171 60.2567 0.024919 59.1717 0.31882 58.1156C0.924024 55.9408 1.56993 53.7774 2.19205 51.6073C2.94208 48.991 3.72411 46.3829 4.42057 43.7525C5.26187 40.575 7.18885 38.3188 10.0996 36.8407C11.7194 36.0183 13.3371 35.1918 14.9562 34.3682C15.1928 34.2479 15.4716 34.1853 15.4998 33.8374C15.5069 33.7489 15.6224 33.6504 15.7112 33.5899C16.6405 32.9567 17.5669 32.3187 18.5123 31.7099C18.7546 31.554 19.0612 31.4969 19.3383 31.3943C19.3842 31.421 19.4301 31.4479 19.476 31.4746C19.5997 30.8216 19.7619 30.1729 19.8373 29.5143C19.9355 28.6559 19.9773 27.7903 20.0129 26.9266C20.0196 26.7657 19.917 26.5695 19.8056 26.4398C19.231 25.7702 18.6496 25.1054 18.0467 24.4609C17.2396 23.5981 16.8895 22.558 16.7773 21.4141C16.7555 21.1928 16.7252 20.9724 16.7006 20.7677C16.6466 20.7402 16.6144 20.7088 16.5925 20.7148C15.629 20.978 15.0824 20.5112 14.6839 19.6957C14.1485 18.5999 13.5442 17.5346 13.601 16.2554C13.6395 15.3889 13.7955 14.6002 14.6831 14.1559C14.7989 14.0979 14.8564 13.8395 14.8656 13.67C14.9749 11.6524 15.213 9.65696 15.6382 7.67491C16.3853 4.19201 18.5237 1.9352 21.8451 0.877095C27.2077 -0.83125 32.2592 -0.0382002 36.8646 3.20502C38.9963 4.70616 40.0689 6.89695 40.4622 9.40411C41.0644 13.243 39.6513 16.4209 37.0934 19.2153C36.6947 19.6508 36.4561 20.2458 36.2037 20.7945C35.9907 21.2579 35.8366 21.7535 35.7057 22.2477C35.1839 24.2184 34.1071 25.8502 32.573 27.1635C31.1969 28.3414 29.7736 29.4698 28.3149 30.5446C27.8784 30.8662 27.2599 30.9597 26.7111 31.1078C26.4664 31.174 26.1562 31.0303 26.0881 31.4372C26.0209 31.8392 25.8216 32.2313 26.2779 32.5657C27.0552 33.1354 27.8149 33.7298 28.5647 34.3349C28.738 34.4748 28.8318 34.7081 28.9802 34.8835C29.0868 35.0095 29.2084 35.1348 29.3485 35.2191C31.4829 36.5031 33.6227 37.7784 35.7576 39.0619C35.977 39.1938 36.2063 39.3352 36.3728 39.5231C36.757 39.9568 37.1155 39.8967 37.5248 39.5669C37.8367 39.3157 38.2046 39.1296 38.4983 38.8612C38.6261 38.7445 38.6828 38.4932 38.6799 38.3045C38.6732 37.8591 38.4719 37.711 37.9753 37.7849C36.9875 37.9319 36.0923 37.3187 35.759 36.243C35.39 35.0518 35.1125 33.832 34.8131 32.6202C34.7259 32.2673 34.9613 32.0396 35.3575 32.1134C35.7823 32.1925 36.2301 32.2735 36.604 32.4724C37.3529 32.8709 38.1031 33.2931 38.7714 33.8093C39.8425 34.6368 39.9737 35.8587 39.2967 37.0177C39.1534 37.2631 39.2759 37.662 39.2759 37.9902C39.3346 38.0142 39.3934 38.0382 39.4522 38.0621C40.2261 37.1023 41.0001 36.1424 41.8524 35.0854C41.1305 35.0633 40.8525 34.682 40.5747 34.221C40.3988 33.9291 40.0524 33.7019 39.7338 33.5403C39.2622 33.3012 39.0825 32.963 39.1236 32.4585C39.1638 31.9642 39.1301 31.4586 39.2216 30.9754C39.2932 30.5975 39.5181 30.2504 39.653 29.8817C39.7335 29.6614 39.8512 29.4116 39.8126 29.2003C39.7364 28.7829 39.8432 28.5009 40.1725 28.2394C40.6625 27.8501 41.1741 27.4677 41.5812 27.0003C42.0838 26.4231 42.9291 26.3706 43.5287 26.9468C43.6465 26.8236 43.7636 26.6998 43.8823 26.5773C44.1529 26.2981 44.457 26.1248 44.8725 26.2059C45.0051 26.2317 45.1541 26.1612 45.2938 26.1684C45.6418 26.1865 45.9979 26.1853 46.3341 26.2629C46.8316 26.3775 47.3194 26.541 47.8018 26.7103C47.973 26.7704 48.16 26.8763 48.2643 27.0166C48.5401 27.3879 48.77 27.7925 49.0269 28.1781C49.3112 28.6048 49.3251 29.0732 49.1406 29.5128C48.9633 29.9349 49.0494 30.2918 49.2362 30.6568C49.4479 31.0706 49.6676 31.4806 49.8942 31.8865C50.0938 32.244 50.0119 32.5473 49.6401 32.6628C48.8892 32.8961 48.536 33.3206 48.5402 34.1418C48.5435 34.7809 48.1007 35.1771 47.4837 35.4346C46.9289 35.6663 46.4154 36.0125 45.9166 36.3554C45.3883 36.7185 45.2994 36.698 44.7605 36.3862C44.1263 36.0191 43.442 35.7346 42.7667 35.4435C42.6696 35.4016 42.4516 35.4825 42.375 35.5759C42.0915 35.9212 41.8439 36.2955 41.5596 36.6913C41.8136 36.8534 42.0464 37.0021 42.2793 37.1508C42.2746 37.205 42.2699 37.2592 42.2652 37.3134C41.9884 37.3333 41.7067 37.3934 41.4356 37.3626C41.1219 37.3268 40.9269 37.4266 40.7415 37.6675C40.4975 37.9846 40.2112 38.2691 39.9487 38.5724C39.6975 38.8628 39.4535 39.1593 39.1974 39.4636C39.3519 39.4263 39.6236 39.4429 39.7554 39.3158C40.6382 38.4646 41.6467 38.8215 42.3763 39.5208C43.0379 40.1548 43.4492 40.9566 43.6504 41.8515C43.7516 42.3011 43.5513 42.4905 43.094 42.3962C42.353 42.2435 41.6172 42.0648 40.8736 41.9268C40.1653 41.7955 39.7369 41.3856 39.4981 40.7274C39.4215 40.516 39.3021 40.1885 39.1542 40.16C38.7738 40.0866 38.3635 40.1252 37.9716 40.1724C37.8152 40.1912 37.6758 40.3505 37.3794 40.5426C37.6713 40.7761 37.9515 40.9456 38.1624 41.1774C40.2634 43.4861 41.8757 46.113 43.3082 48.8711C44.1486 50.4892 45.1307 52.0356 46.0711 53.6012C47.2435 55.5531 48.4316 57.4982 49.2357 59.6368C49.6688 60.7886 49.5601 61.9782 49.2383 63.1371C49.0056 63.9754 48.3949 64.4911 47.5558 64.7043C46.5803 64.952 45.6185 64.89 44.7686 64.3161C42.4445 62.7469 40.2971 60.9607 38.3263 58.9703C38.0255 58.6665 37.8215 58.2693 37.5622 57.9232C37.3807 57.681 37.2119 57.4158 36.9835 57.2245C36.3241 56.6718 35.9873 55.9737 35.9618 55.1312C35.9485 54.6889 35.8725 54.2853 35.5993 53.9217C35.5085 53.8009 35.4853 53.63 35.4051 53.4107C35.1393 53.5199 34.8492 53.6028 34.5957 53.7488C32.0046 55.241 29.2208 55.2505 26.3804 54.8138C25.62 54.697 25.4512 54.2361 25.9245 53.634C26.2255 53.251 26.6028 53.0098 27.1081 52.9782C27.8795 52.9301 28.6533 52.8932 29.4192 52.797C29.8887 52.738 30.3454 52.5771 30.8079 52.4621C30.8038 52.4204 30.7996 52.3789 30.7955 52.3373C30.6058 52.3373 30.4155 52.3472 30.2267 52.3353C29.7962 52.3083 29.5272 52.0219 29.6787 51.6315C29.8146 51.2814 30.0494 50.819 30.352 50.709C31.6925 50.2218 33.0616 49.7992 34.4431 49.4402C35.5279 49.1583 36.4429 49.6054 37.2882 50.2895C37.7967 50.701 38.3964 51.0016 38.9582 51.3471C39.0085 51.378 39.0843 51.3922 39.1427 51.382C39.8638 51.2561 40.388 51.6141 40.853 52.0847C41.721 52.9632 42.5769 53.8538 43.4356 54.7415C44.094 55.4222 44.7773 56.082 45.396 56.797C45.8438 57.3145 46.2272 57.893 46.5855 58.4769C46.6703 58.6152 46.5389 58.8846 46.5069 59.0936C46.3161 58.9966 46.0688 58.9452 45.9449 58.7941C45.4997 58.2508 45.1442 57.6297 44.6679 57.1179C43.2907 55.6379 41.8743 54.1939 40.4654 52.7434C40.2496 52.5212 39.9921 52.339 39.7026 52.0952C39.8082 53.9817 38.7075 55.1249 36.7649 55.2506C36.7292 55.7913 36.9982 56.1808 37.3593 56.5537C37.7022 56.9078 37.9782 57.3252 38.3094 57.6916C38.9737 58.4266 39.5958 59.2146 40.3431 59.8567C41.8033 61.1113 43.3321 62.2875 44.8438 63.482C45.4491 63.9603 46.1531 64.1448 46.9294 64.0682C47.8761 63.9746 48.4084 63.5326 48.6053 62.6164C48.88 61.3384 48.7451 60.1115 48.1686 58.9227C46.9422 56.3936 45.4177 54.0382 43.9675 51.6368C42.9411 49.9373 42.1087 48.1226 41.0927 46.4163C39.9687 44.5285 38.7029 42.7307 37.1287 41.1682C36.8678 40.9092 36.6677 40.8698 36.3445 41.0526C35.4495 41.5588 34.5371 42.0349 33.6269 42.514C33.3537 42.6579 33.2914 42.8127 33.407 43.1237C33.8106 44.2096 33.644 45.2305 32.9601 46.17C31.8397 47.7091 30.4033 48.9092 28.8427 49.9775C28.5759 50.1601 28.3337 50.1218 28.0895 49.9367C27.6043 49.569 27.1161 49.2055 26.5683 48.7945C26.2301 49.3322 25.903 49.8521 25.5842 50.3587C25.6334 50.4199 25.6472 50.4539 25.6711 50.4641C25.8634 50.5467 26.0577 50.6247 26.2514 50.7042C26.0623 50.8257 25.8875 51.0071 25.681 51.0562C25.2494 51.1589 25.0625 51.4211 24.9203 51.8162C23.7416 55.0929 23.1814 58.4714 23.1771 61.9464C23.176 62.7792 23.1695 63.612 23.1668 64.4449C23.1659 64.7169 23.1368 65.0031 22.7896 65C22.452 64.9969 22.3984 64.7166 22.4069 64.4425C22.4662 62.5222 22.5101 60.6012 22.6049 58.6826C22.6261 58.2547 22.5455 57.949 22.2287 57.6686C22.1048 57.5588 22.0573 57.3639 21.975 57.2079C22.1622 57.2092 22.3495 57.2093 22.5368 57.2128C22.5992 57.2138 22.6615 57.2237 22.7159 57.2288ZM34.9808 22.0216C34.6324 22.0588 34.3207 21.5738 34.0616 22.0422C33.8206 22.4778 33.5056 22.6941 33.012 22.626C32.5491 22.5621 32.2044 22.1977 32.0529 21.7197C32.0025 21.5607 31.812 21.449 31.7001 21.3046C31.6096 21.1879 31.4518 21.0227 31.4832 20.9363C31.53 20.8078 31.7044 20.6966 31.849 20.6415C31.9547 20.6011 32.1016 20.6544 32.2272 20.68C33.2166 20.8814 34.2053 21.0863 35.2271 21.2969C35.3379 21.0064 35.4461 20.7085 35.5645 20.4148C35.8299 19.7567 35.6872 19.5146 34.9836 19.3639C34.1041 19.1756 33.23 18.9621 32.3529 18.7627C32.2802 18.7462 32.1862 18.7249 32.1289 18.7555C31.2926 19.201 30.5129 19.7108 30.217 20.6816C29.9577 21.5325 29.8477 22.3991 29.9695 23.2902C30.0235 23.6856 30.0519 24.0875 30.0539 24.4866C30.0573 25.1756 29.2765 26.0443 28.5875 26.1126C28.4607 26.1251 28.2513 26.0289 28.205 25.9269C28.1586 25.8248 28.2309 25.6191 28.3198 25.5193C28.4317 25.3939 28.6111 25.3259 28.7654 25.2405C29.225 24.986 29.4209 24.6174 29.3323 24.0865C29.2691 23.7084 29.2424 23.3228 29.2236 22.9393C29.1251 20.9353 29.6195 19.223 31.5682 18.2149C31.7084 18.1424 31.8314 17.9454 31.8691 17.7847C32.0301 17.0976 32.5559 16.7662 33.2422 16.9747C33.857 17.1615 34.4622 17.3798 35.0772 17.5656C35.6521 17.7394 36.2792 17.8014 36.618 18.4195C37.4083 17.1411 37.3367 16.3944 36.4388 15.5907C36.0328 15.2274 35.6502 14.8307 35.2089 14.5158C33.9565 13.622 32.9592 12.5154 32.2154 11.1752C31.9145 10.6332 31.5906 10.1037 31.2765 9.56758C31.1975 9.60708 31.1523 9.62477 31.1124 9.65043C28.4984 11.3313 25.8429 12.9318 22.8269 13.822C21.7444 14.1416 20.7666 14.6898 20.1289 15.5901C19.3865 16.6383 18.559 16.6578 17.4889 16.2523C16.8383 16.0058 16.2045 15.8666 15.85 15.1475C15.5676 14.5743 14.8338 14.663 14.5252 15.2489C14.4665 15.3602 14.4318 15.4881 14.4074 15.6125C14.0828 17.2668 14.8665 18.6018 15.6979 19.9085C15.9044 20.233 16.5504 20.0402 16.6926 19.6831C16.7494 19.5405 16.9343 19.4482 17.0608 19.3331C17.1691 19.4688 17.351 19.594 17.3722 19.742C17.4399 20.2161 17.4354 20.6997 17.482 21.1774C17.565 22.0276 17.6989 22.8696 18.26 23.5625C20.0106 25.7244 21.9545 27.7069 24.0274 29.5598C25.1709 30.5819 26.9675 30.6371 28.2217 29.7744C29.8809 28.6331 31.4207 27.3508 32.8223 25.905C33.8717 24.8226 34.6012 23.5683 34.9808 22.0216ZM32.6417 43.2247C32.4331 43.3764 32.2625 43.4876 32.1062 43.6161C31.2266 44.3395 30.3514 45.0686 29.472 45.7923C29.2534 45.9723 29.0082 46.2509 28.7382 45.9239C28.5056 45.6422 28.7501 45.427 28.9677 45.2453C29.7069 44.6286 30.4443 44.0097 31.1858 43.3957C31.5156 43.1225 31.8535 42.8588 32.19 42.589C31.4485 41.8132 30.0569 41.8507 29.4341 42.6436C29.2274 42.9067 29.0673 43.2056 28.8809 43.4848C28.6236 43.8701 28.3349 43.8522 28.129 43.4429C27.9997 43.1859 27.9097 42.8944 27.7266 42.683C27.4956 42.4161 27.2225 42.1027 26.9065 42.0054C25.6467 41.6175 24.5763 42.2987 24.3025 43.5808C24.1648 44.2254 24.2824 44.8163 24.6224 45.3745C25.5551 46.9058 26.8129 48.1267 28.2803 49.1426C28.3778 49.2101 28.5975 49.2218 28.6911 49.1584C30.1355 48.1787 31.4388 47.0448 32.4392 45.604C32.9407 44.8821 32.9883 44.1027 32.6417 43.2247ZM20.8957 27.4511C20.8482 27.4878 20.8007 27.5245 20.7531 27.5613C20.7447 27.656 20.7356 27.7506 20.7281 27.8452C20.6037 29.4043 20.5762 30.9803 19.8134 32.4186C19.7546 32.5296 19.8727 32.8182 19.9957 32.9261C20.8444 33.6708 21.7585 34.3093 22.877 34.6131C23.7327 34.8456 24.8466 34.4108 25.2581 33.6304C25.3229 33.5075 25.3773 33.3588 25.3734 33.2239C25.3518 32.4853 25.3106 31.7474 25.2732 30.9446C24.383 30.8007 23.6015 30.2577 22.9185 29.5546C22.2407 28.8568 21.5697 28.1526 20.8957 27.4511ZM18.6955 32.4238C17.8974 32.9751 17.1259 33.508 16.2492 34.1136C17.6134 35.6007 18.9175 37.0224 20.1986 38.4189C21.0859 37.3569 21.9084 36.3726 22.7367 35.3814C21.1248 34.799 19.6668 34.004 18.6955 32.4238ZM26.4943 53.96C26.6635 54.0694 26.7001 54.1125 26.7408 54.1167C28.9067 54.3375 31.0748 54.5812 33.1419 53.5959C33.5914 53.3817 34.0295 53.1257 34.5013 52.9807C35.0102 52.8244 35.5531 52.7773 36.0804 52.6787C36.1973 52.6568 36.3472 52.6544 36.4206 52.5817C36.7794 52.2264 37.1175 51.8504 37.4549 51.4902C36.5079 50.4677 35.5038 49.8048 34.1186 50.2268C32.9824 50.5729 31.8565 50.9525 30.7289 51.3256C30.6615 51.3479 30.6191 51.445 30.5074 51.5738C30.7542 51.5435 30.912 51.5314 31.067 51.504C31.7322 51.3866 32.3938 51.2447 33.063 51.1586C33.2258 51.1376 33.4457 51.2613 33.5698 51.3866C33.6174 51.4345 33.5157 51.7464 33.4054 51.8134C32.0619 52.6295 30.742 53.5133 29.0912 53.5983C28.497 53.6289 27.9008 53.6423 27.3094 53.7013C27.0651 53.7256 26.8309 53.8493 26.4943 53.96ZM19.0186 53.8794C19.2672 53.7573 19.3665 53.7039 19.4694 53.6586C21.1321 52.9273 21.6149 51.5828 20.9406 49.8651C20.6834 49.21 20.4555 48.5433 20.2236 47.8787C19.8989 46.9478 19.935 46.0224 20.2978 45.1092C20.4928 44.6186 20.7159 44.1382 20.8908 43.6409C20.9654 43.4289 20.9491 43.1853 20.9742 42.9562C20.9178 42.9422 20.8615 42.9282 20.8052 42.914C20.5701 43.3245 20.3414 43.7386 20.0989 44.1447C19.0155 45.9599 18.4451 47.8847 18.8001 50.0153C18.8969 50.5966 18.7266 51.1213 18.4161 51.6126C18.3436 51.7271 18.2388 51.8934 18.274 51.9915C18.4975 52.6149 18.7561 53.2259 19.0186 53.8794ZM26.3555 38.2395C26.9589 37.156 27.5139 36.1714 28.0489 35.1762C28.0948 35.091 28.0517 34.8823 27.976 34.8205C27.3985 34.3497 26.8027 33.9012 26.1633 33.4078C25.8385 34.4595 25.1047 35.0083 24.1253 35.3261C24.8595 36.2854 25.5545 37.1931 26.3555 38.2395ZM46.9463 29.4597C47.1129 28.8572 46.9279 28.4578 46.5831 28.2435C46.0451 27.909 45.5166 27.5519 45.0244 27.155C44.7402 26.9258 44.5452 26.8658 44.3168 27.1828C43.9853 27.6429 43.5321 27.9106 42.991 28.0857C42.7949 28.1491 42.6127 28.3724 42.5063 28.5671C42.2924 28.9584 42.1181 29.3739 41.9638 29.7927C41.9141 29.9275 41.9263 30.134 41.9985 30.2564C42.5745 31.2329 43.1968 32.1833 43.7506 33.1717C43.9798 33.581 44.1893 33.6621 44.6148 33.3609C44.2716 32.7414 43.9187 32.1381 43.5986 31.518C43.1718 30.6913 42.866 29.8309 43.2526 28.9052C43.3156 28.7546 43.5727 28.6841 43.7402 28.5765C43.802 28.7524 43.8889 28.9245 43.9171 29.1056C43.9361 29.2279 43.8723 29.3628 43.8456 29.4921C43.9024 29.5153 43.9592 29.5385 44.016 29.5617C44.0911 29.4223 44.1901 29.2902 44.2373 29.1419C44.4399 28.5052 44.7335 28.3078 45.3892 28.4215C46.0174 28.5306 46.6017 28.7263 46.9463 29.4597ZM45.3064 33.7822C44.275 34.5987 43.687 34.4934 43.0613 33.378C42.9094 33.1073 42.7365 33.0635 42.4463 33.19C42.4997 33.4911 42.5765 33.7858 42.5989 34.0845C42.6294 34.4917 42.8363 34.69 43.2138 34.8385C43.8538 35.0902 44.4599 35.4255 45.0932 35.6959C45.2299 35.7542 45.4472 35.7371 45.5826 35.668C46.1798 35.3636 46.7541 35.0152 47.3497 34.7077C47.7108 34.5213 47.8506 34.2468 47.8361 33.892C47.4249 34.08 47.0115 34.4293 46.6221 34.4046C46.1813 34.3768 45.762 34.0135 45.3064 33.7822ZM49.0925 32.0159C48.8485 31.4795 48.5766 30.936 48.3519 30.3739C48.0655 29.6574 47.9647 29.6132 47.2598 30.0564C47.5309 30.5481 47.2809 30.8258 46.8264 31.0105C46.7377 31.0465 46.6239 31.0793 46.5779 31.1498C46.4958 31.2759 46.3972 31.4402 46.4201 31.5681C46.4354 31.6534 46.703 31.7912 46.765 31.7538C46.992 31.617 47.2108 31.4405 47.3741 31.2333C47.5284 31.0374 47.6415 30.7825 47.9316 30.9238C48.2428 31.0754 48.1471 31.3386 48.0257 31.5853C47.6546 32.3397 47.3027 32.5355 46.4521 32.49C46.0634 32.4693 45.6728 32.4865 45.2672 32.4865C45.3413 32.9336 46.4649 33.7438 46.7703 33.6549C46.8289 33.6379 46.8777 33.5862 46.93 33.5492C47.6467 33.0414 48.3631 32.5333 49.0925 32.0159ZM38.2554 36.9782C38.0954 36.6546 37.9904 36.3489 37.8101 36.0963C37.3828 35.4977 36.907 34.9333 36.4807 34.3341C36.3834 34.1972 36.4071 33.9754 36.3751 33.7926C36.5555 33.8292 36.7416 33.8496 36.9138 33.9096C36.9946 33.9376 37.0524 34.0386 37.1138 34.1122C37.7002 34.814 38.2851 35.517 38.8798 36.2308C39.0716 35.8181 39.0195 35.3742 38.7691 34.9913C38.0686 33.9201 36.984 33.3853 35.8074 32.9996C35.7908 32.9941 35.7593 33.0333 35.7329 33.0531C35.9612 33.9998 36.1603 34.9549 36.4261 35.8912C36.6866 36.8094 37.2867 37.1656 38.2554 36.9782ZM36.3248 53.7634C36.6559 54.0502 36.795 54.6187 37.4051 54.4657C38.2267 54.2596 38.7263 53.682 38.9473 52.9075C39.1177 52.3098 38.5509 52.0809 38.246 51.7414C37.6045 52.4165 36.9927 53.0604 36.3248 53.7634ZM17.3596 51.9246C16.3558 52.4548 16.4505 53.1609 16.984 54.2358C17.3669 55.0074 17.9321 55.124 18.6563 54.7072C18.2263 53.7843 17.7979 52.8652 17.3596 51.9246ZM42.7962 27.3728C42.7649 27.3189 42.7336 27.2648 42.7022 27.2109C42.5535 27.27 42.3773 27.2966 42.2609 27.3938C41.7452 27.8251 41.2361 28.2657 40.7502 28.7293C40.6401 28.8343 40.5641 29.0556 40.5883 29.205C40.7052 29.9288 40.8861 30.6428 40.9976 31.3673C41.1189 32.1562 41.6334 32.5019 42.4855 32.2658C42.2625 31.9219 42.057 31.5833 41.8305 31.2592C40.8818 29.9019 40.8392 30.4164 41.5986 28.8843C41.6269 28.8273 41.6492 28.7668 41.6684 28.7059C41.8537 28.1147 42.106 27.5755 42.7962 27.3728ZM41.7989 34.3861C41.8329 34.354 41.8669 34.3219 41.901 34.2898C41.8423 33.9652 41.8107 33.6322 41.7129 33.3197C41.6666 33.1716 41.5151 32.9885 41.3745 32.9484C40.6498 32.7419 40.3379 32.2527 40.2841 31.5418C40.261 31.236 40.2054 30.9326 40.1645 30.6281C40.0965 30.6276 40.0284 30.627 39.9603 30.6266C39.9213 31.2125 39.8531 31.7988 39.8598 32.3842C39.8619 32.5731 40.0155 32.8301 40.1786 32.9341C40.6716 33.2486 41.1434 33.5539 41.3877 34.1232C41.4407 34.2465 41.6575 34.3003 41.7989 34.3861ZM40.2304 40.3889C40.1953 40.4342 40.1601 40.4795 40.125 40.5248C40.3051 40.7262 40.4493 41.0362 40.6721 41.109C41.3801 41.3408 42.1173 41.4844 42.8782 41.6706C42.4892 40.0907 41.1424 39.1015 40.4795 39.7086C40.9212 39.9201 41.3637 40.1039 41.773 40.3436C41.9118 40.425 41.9668 40.6479 42.0601 40.8061C41.8759 40.8323 41.6729 40.9209 41.5113 40.8728C41.0748 40.7426 40.6561 40.5542 40.2304 40.3889ZM46.3368 30.4277C46.3454 30.4144 46.4914 30.2922 46.4785 30.1902C46.4147 29.6872 45.7164 29.1008 45.2181 29.1211C45.1239 29.1249 44.9594 29.2474 44.9564 29.3203C44.9436 29.6329 44.879 30.0036 45.0183 30.2495C45.2876 30.7249 45.4021 31.1858 45.2463 31.7196C45.5335 31.7752 45.7083 31.7603 45.6217 31.4309C45.5606 31.1986 45.4977 30.9662 45.4517 30.7308C45.3921 30.4248 45.1057 30.0252 45.5812 29.8791C45.737 29.831 46.018 30.1851 46.3368 30.4277ZM48.5319 29.0782C48.5098 28.3818 48.0123 27.8624 47.6068 27.4903C47.1965 27.1139 46.4622 27.0863 45.8699 26.9059C45.8503 26.9483 45.8306 26.9908 45.8111 27.0331C46.1877 27.2275 46.5523 27.4514 46.9443 27.608C47.3433 27.7675 47.6045 28.0156 47.6388 28.4389C47.6813 28.9645 47.9752 29.1329 48.5319 29.0782ZM21.5052 49.441C21.7944 48.1627 21.8058 47.6995 21.537 47.2755C21.3495 48.0072 20.9068 48.6872 21.5052 49.441ZM44.3963 31.5122C44.6635 31.0203 44.3885 30.3947 43.8307 30.215C44.0483 30.714 44.2223 31.113 44.3963 31.5122Z" fill="#060606"/>
<path d="M43.8307 30.215C44.0483 30.714 44.2223 31.113 44.3963 31.5122L43.8307 30.215Z" fill="#060606"/>
<path d="M26.7859 17.9886C25.9654 17.8386 25.1289 17.7459 24.3286 17.524C23.3828 17.2617 22.4644 17.2632 21.5247 17.492C21.1978 17.5717 20.8602 17.6151 20.525 17.6529C20.192 17.6903 19.9036 17.5987 19.8058 17.2387C19.712 16.8935 19.871 16.6369 20.1796 16.4922C20.9795 16.1172 21.7749 15.7278 22.5975 15.4086C22.8894 15.2953 23.2591 15.3272 23.5853 15.3637C24.8443 15.5049 26.0986 15.6876 27.3575 15.8287C27.9908 15.8997 28.4069 16.2708 28.4172 16.8514C28.4273 17.4229 28.0194 17.8377 27.378 17.8936C27.1865 17.9103 26.9923 17.8962 26.7993 17.8962C26.7948 17.927 26.7904 17.9578 26.7859 17.9886Z" fill="#060606"/>
<path d="M22.6297 19.0795C23.7569 19.2374 24.8847 19.391 26.0108 19.5565C26.2677 19.5943 26.5735 19.6643 26.5173 20.0056C26.4543 20.3873 26.1387 20.3144 25.8629 20.2591C25.7056 20.2276 25.5445 20.211 25.3903 20.1688C24.9659 20.0527 24.6783 20.0576 24.381 20.5289C23.8557 21.3614 22.5449 21.1665 22.1459 20.2366C22.0244 19.9537 21.8876 19.8625 21.5917 19.8426C21.4371 19.8322 21.2948 19.6409 21.1469 19.5313C21.2997 19.4072 21.4389 19.2051 21.6084 19.1755C21.9358 19.1186 22.2803 19.1589 22.6178 19.1589C22.6216 19.1324 22.6257 19.106 22.6297 19.0795Z" fill="#060606"/>
<path d="M15.492 16.5025C15.407 16.6252 15.3624 16.7641 15.2793 16.7926C15.1466 16.8383 14.96 16.8602 14.8502 16.7979C14.7663 16.7504 14.6926 16.4994 14.741 16.4387C14.9501 16.1761 15.1705 15.8476 15.4579 15.7499C15.6285 15.692 16.0273 15.9656 16.152 16.1859C16.3282 16.4978 16.4189 16.8993 16.4129 17.2604C16.4055 17.7013 16.0561 18.1185 16.3212 18.5985C16.3552 18.6599 16.2222 18.8979 16.1324 18.9206C16.0083 18.952 15.7993 18.9015 15.7184 18.8078C15.4232 18.4653 15.3901 18.0683 15.5564 17.6427C15.6883 17.3048 15.8583 16.9548 15.492 16.5025Z" fill="#060606"/>
<path d="M27.0687 28.5388C26.763 28.5522 26.451 28.6069 26.1541 28.5623C25.9956 28.5385 25.8631 28.3432 25.7188 28.2253C25.8481 28.1073 25.972 27.895 26.1076 27.8873C26.7483 27.8508 27.3941 27.8443 28.0337 27.8893C28.1831 27.8998 28.3154 28.1527 28.4556 28.2941C28.2824 28.3914 28.1165 28.5508 27.9345 28.5717C27.6523 28.6041 27.359 28.5421 27.0705 28.5201C27.0698 28.5263 27.0692 28.5325 27.0687 28.5388Z" fill="#060606"/>
<path d="M35.0701 16.6818C34.7665 16.8839 34.5859 17.0975 34.4194 17.0871C34.2703 17.0778 34.0047 16.7961 34.0274 16.6808C34.0612 16.5089 34.2861 16.2926 34.4627 16.257C34.5925 16.2307 34.7751 16.4638 35.0701 16.6818Z" fill="#060606"/>
</svg>
